classDiagram

namespace guitool {
  class TabTemplate
}

namespace mtdomegui {
  class Model
  class Reporter
  class SignalTelemetry
  class SignalFaultCode
  class SignalMotion
  class SignalState
}

Model *-- Reporter

Reporter *-- SignalTelemetry : emit()
Reporter *-- SignalFaultCode : emit()
Reporter *-- SignalMotion : emit()
Reporter *-- SignalState : emit()

TabTemplate <|-- TabApertureShutter
TabTemplate <|-- TabFigure

TabApertureShutter *-- Model
TabApertureShutter "1" *-- "6" TabFigure
TabApertureShutter --> SignalTelemetry : connect()
TabApertureShutter --> SignalFaultCode : connect()
TabApertureShutter --> SignalMotion : connect()
TabApertureShutter --> SignalState : connect()

TabFigure *-- Model
